<mxfile host="Electron" agent="Mozilla/5.0 (Windows NT 10.0; Win64; x64) AppleWebKit/537.36 (KHTML, like Gecko) draw.io/24.7.17 Chrome/128.0.6613.36 Electron/32.0.1 Safari/537.36" version="24.7.17">
  <diagram name="С шагами" id="xIhyaZG6YJ3Ommr4Jq3M">
    <mxGraphModel dx="1036" dy="513" grid="1" gridSize="10" guides="1" tooltips="1" connect="1" arrows="1" fold="1" page="1" pageScale="1" pageWidth="1169" pageHeight="827" background="#ffffff" math="0" shadow="0">
      <root>
        <mxCell id="0" />
        <mxCell id="1" parent="0" />
        <mxCell id="5ndt5piNI4vWOnFYVdXJ-47" value="" style="rounded=1;whiteSpace=wrap;html=1;dashed=1;dashPattern=1 1;" parent="1" vertex="1">
          <mxGeometry x="700" y="380" width="40" height="280" as="geometry" />
        </mxCell>
        <mxCell id="5ndt5piNI4vWOnFYVdXJ-1" value="" style="endArrow=classic;html=1;rounded=0;" parent="1" edge="1">
          <mxGeometry width="50" height="50" relative="1" as="geometry">
            <mxPoint x="720" y="720" as="sourcePoint" />
            <mxPoint x="720" y="80" as="targetPoint" />
          </mxGeometry>
        </mxCell>
        <mxCell id="5ndt5piNI4vWOnFYVdXJ-3" value="&lt;font style=&quot;font-size: 10px;&quot;&gt;&lt;b style=&quot;font-size: 10px;&quot;&gt;master&lt;/b&gt;&lt;br style=&quot;font-size: 10px;&quot;&gt;(ветка [базовый код])&lt;/font&gt;" style="text;html=1;align=center;verticalAlign=middle;whiteSpace=wrap;rounded=0;fontSize=10;" parent="1" vertex="1">
          <mxGeometry x="725" y="80" width="105" height="30" as="geometry" />
        </mxCell>
        <mxCell id="5ndt5piNI4vWOnFYVdXJ-2" value="" style="ellipse;whiteSpace=wrap;html=1;fillColor=#080808;" parent="1" vertex="1">
          <mxGeometry x="715" y="635" width="10" height="10" as="geometry" />
        </mxCell>
        <mxCell id="5ndt5piNI4vWOnFYVdXJ-12" value="" style="endArrow=classic;html=1;rounded=0;" parent="1" source="5ndt5piNI4vWOnFYVdXJ-2" edge="1">
          <mxGeometry width="50" height="50" relative="1" as="geometry">
            <mxPoint x="725" y="635" as="sourcePoint" />
            <mxPoint x="600" y="400" as="targetPoint" />
            <Array as="points">
              <mxPoint x="600" y="600" />
            </Array>
          </mxGeometry>
        </mxCell>
        <mxCell id="5ndt5piNI4vWOnFYVdXJ-13" value="&lt;font style=&quot;font-size: 10px;&quot;&gt;&lt;b style=&quot;font-size: 10px;&quot;&gt;[новый код]_dev&lt;/b&gt;&lt;/font&gt;&lt;div style=&quot;font-size: 10px;&quot;&gt;&lt;font style=&quot;font-size: 10px;&quot;&gt;(ветка [новый код])&lt;/font&gt;&lt;/div&gt;" style="text;html=1;align=center;verticalAlign=middle;whiteSpace=wrap;rounded=0;fontSize=10;" parent="1" vertex="1">
          <mxGeometry x="485" y="395" width="130" height="30" as="geometry" />
        </mxCell>
        <mxCell id="5ndt5piNI4vWOnFYVdXJ-25" value="" style="ellipse;whiteSpace=wrap;html=1;fillColor=#080808;" parent="1" vertex="1">
          <mxGeometry x="715" y="515" width="10" height="10" as="geometry" />
        </mxCell>
        <mxCell id="5ndt5piNI4vWOnFYVdXJ-26" value="" style="ellipse;whiteSpace=wrap;html=1;fillColor=#080808;" parent="1" vertex="1">
          <mxGeometry x="715" y="395" width="10" height="10" as="geometry" />
        </mxCell>
        <mxCell id="5ndt5piNI4vWOnFYVdXJ-29" value="&lt;font style=&quot;font-size: 10px;&quot;&gt;&lt;b style=&quot;font-size: 10px;&quot;&gt;[базовый код]-8.0.0-rc1&lt;/b&gt;&lt;br style=&quot;font-size: 10px;&quot;&gt;(тег&lt;/font&gt;&lt;span style=&quot;font-size: 10px; background-color: initial;&quot;&gt;)&lt;/span&gt;" style="text;html=1;align=center;verticalAlign=middle;whiteSpace=wrap;rounded=0;fontSize=10;" parent="1" vertex="1">
          <mxGeometry x="725" y="505" width="90" height="30" as="geometry" />
        </mxCell>
        <mxCell id="5ndt5piNI4vWOnFYVdXJ-30" value="&lt;font style=&quot;font-size: 10px;&quot;&gt;&lt;b style=&quot;font-size: 10px;&quot;&gt;[базовый код]-8.0.0&lt;/b&gt;&lt;br style=&quot;font-size: 10px;&quot;&gt;(тег&lt;/font&gt;&lt;span style=&quot;font-size: 10px; background-color: initial;&quot;&gt;)&lt;/span&gt;" style="text;html=1;align=center;verticalAlign=middle;whiteSpace=wrap;rounded=0;fontSize=10;" parent="1" vertex="1">
          <mxGeometry x="725" y="384" width="80" height="30" as="geometry" />
        </mxCell>
        <mxCell id="5ndt5piNI4vWOnFYVdXJ-32" value="&lt;font style=&quot;font-size: 10px;&quot;&gt;&lt;b style=&quot;font-size: 10px;&quot;&gt;[базовый код]-8.0.0-beta1&lt;/b&gt;&lt;br style=&quot;font-size: 10px;&quot;&gt;(тег&lt;/font&gt;&lt;span style=&quot;font-size: 10px; background-color: initial;&quot;&gt;)&lt;/span&gt;" style="text;html=1;align=center;verticalAlign=middle;whiteSpace=wrap;rounded=0;fontSize=10;" parent="1" vertex="1">
          <mxGeometry x="715" y="630" width="95" height="30" as="geometry" />
        </mxCell>
        <mxCell id="5ndt5piNI4vWOnFYVdXJ-33" value="" style="ellipse;whiteSpace=wrap;html=1;fillColor=#080808;" parent="1" vertex="1">
          <mxGeometry x="595" y="595" width="10" height="10" as="geometry" />
        </mxCell>
        <mxCell id="5ndt5piNI4vWOnFYVdXJ-35" value="&lt;font style=&quot;font-size: 10px;&quot;&gt;&lt;b style=&quot;font-size: 10px;&quot;&gt;[новый код]-1.0.0.0-dev&lt;/b&gt;&lt;br style=&quot;font-size: 10px;&quot;&gt;(тег&lt;/font&gt;&lt;span style=&quot;font-size: 10px; background-color: initial;&quot;&gt;)&lt;/span&gt;" style="text;html=1;align=center;verticalAlign=middle;whiteSpace=wrap;rounded=0;fontSize=10;" parent="1" vertex="1">
          <mxGeometry x="545" y="615" width="95" height="30" as="geometry" />
        </mxCell>
        <mxCell id="5ndt5piNI4vWOnFYVdXJ-37" value="" style="endArrow=classic;html=1;rounded=0;" parent="1" source="5ndt5piNI4vWOnFYVdXJ-42" edge="1">
          <mxGeometry width="50" height="50" relative="1" as="geometry">
            <mxPoint x="594.9965835097538" y="517.4188611699179" as="sourcePoint" />
            <mxPoint x="480" y="440" as="targetPoint" />
            <Array as="points">
              <mxPoint x="479.74" y="479" />
            </Array>
          </mxGeometry>
        </mxCell>
        <mxCell id="5ndt5piNI4vWOnFYVdXJ-42" value="ё" style="ellipse;whiteSpace=wrap;html=1;fillColor=#080808;" parent="1" vertex="1">
          <mxGeometry x="595" y="515" width="10" height="10" as="geometry" />
        </mxCell>
        <mxCell id="5ndt5piNI4vWOnFYVdXJ-43" value="&lt;font style=&quot;font-size: 10px;&quot;&gt;&lt;b style=&quot;font-size: 10px;&quot;&gt;[новый код]-1.0.0.0&lt;/b&gt;&lt;br style=&quot;font-size: 10px;&quot;&gt;(тег, релиз&lt;/font&gt;&lt;span style=&quot;font-size: 10px; background-color: initial;&quot;&gt;)&lt;/span&gt;" style="text;html=1;align=center;verticalAlign=middle;whiteSpace=wrap;rounded=0;fontSize=10;" parent="1" vertex="1">
          <mxGeometry x="605" y="505" width="80" height="30" as="geometry" />
        </mxCell>
        <mxCell id="5ndt5piNI4vWOnFYVdXJ-44" value="&lt;font style=&quot;font-size: 10px;&quot;&gt;&lt;b style=&quot;font-size: 10px;&quot;&gt;[новый код]_release-1.x.x.x&lt;br&gt;&lt;/b&gt;(ветка [новый код]&lt;/font&gt;&lt;span style=&quot;font-size: 10px; background-color: initial;&quot;&gt;)&lt;/span&gt;" style="text;html=1;align=center;verticalAlign=middle;whiteSpace=wrap;rounded=0;fontSize=10;" parent="1" vertex="1">
          <mxGeometry x="355" y="420" width="120" height="30" as="geometry" />
        </mxCell>
        <mxCell id="5ndt5piNI4vWOnFYVdXJ-50" value="&lt;i&gt;Update&lt;/i&gt;" style="text;html=1;align=center;verticalAlign=middle;whiteSpace=wrap;rounded=0;" parent="1" vertex="1">
          <mxGeometry x="790" y="280" width="60" height="30" as="geometry" />
        </mxCell>
        <mxCell id="5ndt5piNI4vWOnFYVdXJ-51" value="" style="endArrow=classic;html=1;rounded=0;dashed=1;dashPattern=1 2;" parent="1" edge="1">
          <mxGeometry width="50" height="50" relative="1" as="geometry">
            <mxPoint x="715" y="395" as="sourcePoint" />
            <mxPoint x="600" y="160" as="targetPoint" />
            <Array as="points">
              <mxPoint x="600" y="357" />
            </Array>
          </mxGeometry>
        </mxCell>
        <mxCell id="5ndt5piNI4vWOnFYVdXJ-52" value="&lt;font color=&quot;#808080&quot; style=&quot;font-size: 10px;&quot;&gt;&lt;b style=&quot;font-size: 10px;&quot;&gt;[новый код]_dev&lt;/b&gt;&lt;/font&gt;&lt;div style=&quot;font-size: 10px;&quot;&gt;&lt;font color=&quot;#808080&quot; style=&quot;font-size: 10px;&quot;&gt;(ветка [новый код])&lt;/font&gt;&lt;/div&gt;" style="text;html=1;align=center;verticalAlign=middle;whiteSpace=wrap;rounded=0;fontSize=10;dashed=1;dashPattern=1 2;fontColor=#CCCCCC;" parent="1" vertex="1">
          <mxGeometry x="587.5" y="150" width="130" height="30" as="geometry" />
        </mxCell>
        <mxCell id="5ndt5piNI4vWOnFYVdXJ-54" value="&lt;font style=&quot;font-size: 10px;&quot;&gt;&lt;b style=&quot;font-size: 10px;&quot;&gt;[новый код]-2.0.0.0-dev&lt;/b&gt;&lt;br style=&quot;font-size: 10px;&quot;&gt;(тег&lt;/font&gt;&lt;span style=&quot;font-size: 10px; background-color: initial;&quot;&gt;)&lt;/span&gt;" style="text;html=1;align=center;verticalAlign=middle;whiteSpace=wrap;rounded=0;fontSize=10;" parent="1" vertex="1">
          <mxGeometry x="605" y="465" width="95" height="30" as="geometry" />
        </mxCell>
        <mxCell id="5ndt5piNI4vWOnFYVdXJ-57" value="ё" style="ellipse;whiteSpace=wrap;html=1;fillColor=#080808;" parent="1" vertex="1">
          <mxGeometry x="595" y="475" width="10" height="10" as="geometry" />
        </mxCell>
        <mxCell id="5ndt5piNI4vWOnFYVdXJ-58" value="&lt;font style=&quot;font-size: 10px;&quot;&gt;&lt;b style=&quot;font-size: 10px;&quot;&gt;[новый код]-1.0.1.0-dev&lt;/b&gt;&lt;br style=&quot;font-size: 10px;&quot;&gt;(тег&lt;/font&gt;&lt;span style=&quot;font-size: 10px; background-color: initial;&quot;&gt;)&lt;/span&gt;" style="text;html=1;align=center;verticalAlign=middle;whiteSpace=wrap;rounded=0;fontSize=10;" parent="1" vertex="1">
          <mxGeometry x="375" y="475" width="95" height="30" as="geometry" />
        </mxCell>
        <mxCell id="5ndt5piNI4vWOnFYVdXJ-60" value="ё" style="ellipse;whiteSpace=wrap;html=1;fillColor=#080808;" parent="1" vertex="1">
          <mxGeometry x="475" y="475" width="10" height="10" as="geometry" />
        </mxCell>
        <mxCell id="5ndt5piNI4vWOnFYVdXJ-61" value="" style="endArrow=classic;html=1;rounded=0;dashed=1;dashPattern=1 2;" parent="1" edge="1">
          <mxGeometry width="50" height="50" relative="1" as="geometry">
            <mxPoint x="600.2565835097538" y="278.41886116991793" as="sourcePoint" />
            <mxPoint x="480" y="200" as="targetPoint" />
            <Array as="points">
              <mxPoint x="480" y="240" />
            </Array>
          </mxGeometry>
        </mxCell>
        <mxCell id="5ndt5piNI4vWOnFYVdXJ-62" value="&lt;font style=&quot;font-size: 10px;&quot;&gt;&lt;b style=&quot;font-size: 10px;&quot;&gt;[новый код]_release-1.x.x.x&lt;br&gt;&lt;/b&gt;(ветка [новый код]&lt;/font&gt;&lt;span style=&quot;font-size: 10px; background-color: initial;&quot;&gt;)&lt;/span&gt;" style="text;html=1;align=center;verticalAlign=middle;whiteSpace=wrap;rounded=0;fontSize=10;fontColor=#808080;" parent="1" vertex="1">
          <mxGeometry x="365" y="180" width="120" height="30" as="geometry" />
        </mxCell>
        <mxCell id="5ndt5piNI4vWOnFYVdXJ-67" value="" style="endArrow=classic;html=1;rounded=0;entryX=1;entryY=0;entryDx=0;entryDy=0;edgeStyle=orthogonalEdgeStyle;curved=1;exitX=0.5;exitY=1;exitDx=0;exitDy=0;" parent="1" source="5ndt5piNI4vWOnFYVdXJ-50" edge="1">
          <mxGeometry width="50" height="50" relative="1" as="geometry">
            <mxPoint x="830" y="340" as="sourcePoint" />
            <mxPoint x="732.5" y="379.99999999999994" as="targetPoint" />
            <Array as="points">
              <mxPoint x="820" y="350" />
              <mxPoint x="780" y="350" />
              <mxPoint x="780" y="330" />
              <mxPoint x="732" y="330" />
            </Array>
          </mxGeometry>
        </mxCell>
        <mxCell id="5ndt5piNI4vWOnFYVdXJ-72" value="" style="endArrow=none;html=1;rounded=0;dashed=1;dashPattern=1 4;" parent="1" edge="1">
          <mxGeometry width="50" height="50" relative="1" as="geometry">
            <mxPoint x="720" y="720" as="sourcePoint" />
            <mxPoint x="720" y="800" as="targetPoint" />
          </mxGeometry>
        </mxCell>
        <mxCell id="5ndt5piNI4vWOnFYVdXJ-75" value="" style="curved=1;endArrow=classic;html=1;rounded=0;dashed=1;" parent="1" edge="1">
          <mxGeometry width="50" height="50" relative="1" as="geometry">
            <mxPoint x="660" y="620" as="sourcePoint" />
            <mxPoint x="670" y="380" as="targetPoint" />
            <Array as="points">
              <mxPoint x="715" y="615" />
              <mxPoint x="950" y="560" />
              <mxPoint x="960" y="260" />
              <mxPoint x="820" y="220" />
              <mxPoint x="660" y="240" />
            </Array>
          </mxGeometry>
        </mxCell>
        <mxCell id="5ndt5piNI4vWOnFYVdXJ-76" value="git rebase" style="text;html=1;align=center;verticalAlign=middle;whiteSpace=wrap;rounded=0;fontStyle=2" parent="1" vertex="1">
          <mxGeometry x="980" y="280" width="60" height="30" as="geometry" />
        </mxCell>
        <mxCell id="5ndt5piNI4vWOnFYVdXJ-77" value="git rebase --onto" style="text;html=1;align=center;verticalAlign=middle;whiteSpace=wrap;rounded=0;fontStyle=2" parent="1" vertex="1">
          <mxGeometry x="265" y="270" width="90" height="30" as="geometry" />
        </mxCell>
        <mxCell id="5ndt5piNI4vWOnFYVdXJ-78" value="" style="curved=1;endArrow=classic;html=1;rounded=0;dashed=1;" parent="1" edge="1">
          <mxGeometry width="50" height="50" relative="1" as="geometry">
            <mxPoint x="540" y="500" as="sourcePoint" />
            <mxPoint x="480" y="220" as="targetPoint" />
            <Array as="points">
              <mxPoint x="495" y="505" />
              <mxPoint x="320" y="510" />
              <mxPoint x="290" y="370" />
              <mxPoint x="350" y="290" />
            </Array>
          </mxGeometry>
        </mxCell>
        <mxCell id="5ndt5piNI4vWOnFYVdXJ-86" value="1" style="ellipse;whiteSpace=wrap;html=1;" parent="1" vertex="1">
          <mxGeometry x="950" y="260" width="30" height="30" as="geometry" />
        </mxCell>
        <mxCell id="5ndt5piNI4vWOnFYVdXJ-88" value="2" style="ellipse;whiteSpace=wrap;html=1;" parent="1" vertex="1">
          <mxGeometry x="510" y="320" width="30" height="30" as="geometry" />
        </mxCell>
        <mxCell id="5ndt5piNI4vWOnFYVdXJ-90" value="" style="curved=1;endArrow=classic;html=1;rounded=0;dashed=1;" parent="1" edge="1">
          <mxGeometry width="50" height="50" relative="1" as="geometry">
            <mxPoint x="610" y="515" as="sourcePoint" />
            <mxPoint x="600" y="280" as="targetPoint" />
            <Array as="points">
              <mxPoint x="570" y="495" />
              <mxPoint x="530" y="470" />
              <mxPoint x="500" y="420" />
              <mxPoint x="520" y="365" />
            </Array>
          </mxGeometry>
        </mxCell>
        <mxCell id="5ndt5piNI4vWOnFYVdXJ-91" value="3" style="ellipse;whiteSpace=wrap;html=1;" parent="1" vertex="1">
          <mxGeometry x="315" y="240" width="30" height="30" as="geometry" />
        </mxCell>
        <mxCell id="5ndt5piNI4vWOnFYVdXJ-93" value="" style="curved=1;endArrow=classic;html=1;rounded=0;dashed=1;" parent="1" edge="1">
          <mxGeometry width="50" height="50" relative="1" as="geometry">
            <mxPoint x="375" y="482.5" as="sourcePoint" />
            <mxPoint x="480" y="240" as="targetPoint" />
            <Array as="points">
              <mxPoint x="340" y="460" />
              <mxPoint x="330" y="410" />
              <mxPoint x="330" y="370" />
              <mxPoint x="360" y="310" />
            </Array>
          </mxGeometry>
        </mxCell>
        <mxCell id="5ndt5piNI4vWOnFYVdXJ-94" value="4" style="ellipse;whiteSpace=wrap;html=1;" parent="1" vertex="1">
          <mxGeometry x="335" y="375" width="30" height="30" as="geometry" />
        </mxCell>
      </root>
    </mxGraphModel>
  </diagram>
</mxfile>
